#!OML:ASF F:\VICON\USERDATA\INSTALL\rory3\rory3.ASF
:FULLY-SPECIFIED
:DEGREES
1336
root -2.81869 19.8531 5.31701 -381.191 -109.018 379.927
lowerback 13.3456 -1.24545 -5.10533
upperback -5.91698 -2.4022 2.63217
thorax -13.8291 -0.519595 6.45405
lowerneck -24.184 -6.12875 -15.8848
upperneck -7.84971 -5.12431 15.2302
head 2.22092 -2.03682 6.977
rclavicle -1.0953e-013 -1.39149e-014
rhumerus 52.3841 -19.8428 -7.57964
rradius 81.1218
rwrist 5.04848
rhand -13.1373 4.33884
rfingers 7.12502
rthumb 12.9608 -25.2386
lclavicle -1.0953e-013 -1.39149e-014
lhumerus 97.599 37.5486 41.5603
lradius 30.9936
lwrist -18.9031
lhand -33.3267 32.0799
lfingers 7.12502
lthumb -6.5296 61.9592
rfemur -50.7103 1.68333 12.5209
rtibia 31.6854
rfoot -1.07748 -3.60396
rtoes 4.30857
lfemur 16.438 6.17437 -13.9623
ltibia -9.54166e-015
lfoot 23.853 15.9066
ltoes -15.0038
1337
root -2.85741 19.879 5.28938 -382.219 -108.308 380.98
lowerback 13.3777 -1.40938 -5.1125
upperback -5.82264 -2.60998 2.7425
thorax -13.701 -0.617363 6.62915
lowerneck -24.6501 -6.09265 -15.8072
upperneck -7.72232 -5.04041 15.0108
head 2.29229 -1.99069 6.89722
rclavicle 4.18939e-014 -1.15295e-014
rhumerus 50.6543 -20.0477 -7.1366
rradius 84.7238
rwrist 5.36633
rhand -14.223 3.70495
rfingers 7.12502
rthumb 11.9141 -25.936
lclavicle 4.18939e-014 -1.15295e-014
lhumerus 98.3777 37.4906 42.5256
lradius 29.2209
lwrist -20.3389
lhand -31.2253 31.5724
lfingers 7.12502
lthumb -4.50066 61.5046
rfemur -50.5399 1.80905 12.1276
rtibia 32.5364
rfoot -0.82519 -5.28163
rtoes 11.2048
lfemur 16.4005 5.60102 -13.8324
ltibia 2.70347e-014
lfoot 24.0005 16.5293
ltoes -13.519
1338
root -2.89622 19.8988 5.25624 -383.782 -107.511 382.521
lowerback 13.5 -1.5484 -5.09036
upperback -5.91672 -2.78408 2.92245
thorax -13.8541 -0.681168 6.8766
lowerneck -24.3436 -6.06159 -16.0166
upperneck -7.72791 -4.962 14.8809
head 2.2347 -1.9541 6.89865
rclavicle -5.25288e-014 -7.15625e-015
rhumerus 48.7822 -20.1187 -6.54766
rradius 88.3203
rwrist 5.79396
rhand -15.0547 2.98657
rfingers 7.12502
rthumb 11.112 -26.6992
lclavicle -5.25288e-014 -7.15625e-015
lhumerus 98.4756 37.11 43.1478
lradius 27.6807
lwrist -21.5354
lhand -29.0018 30.4117
lfingers 7.12502
lthumb -2.3535 60.3785
rfemur -50.199 1.98085 11.778
rtibia 33.4285
rfoot -0.552284 -6.25223
rtoes 13.5899
lfemur 16.3906 4.88538 -13.6168
ltibia 1.11319e-014
lfoot 24.325 16.9393
ltoes -13.1177
1339
root -2.9356 19.9104 5.21815 -385.313 -106.661 384.078
lowerback 13.5246 -1.71545 -5.14276
upperback -5.98928 -3.00884 3.07283
thorax -13.9109 -0.768885 7.13805
lowerneck -24.1462 -5.99567 -16.0736
upperneck -7.71189 -4.86815 14.6894
head 2.18954 -1.91339 6.85504
rclavicle 2.65378e-014 -1.78906e-014
rhumerus 47.1069 -20.5066 -6.23921
rradius 91.8033
rwrist 6.40993
rhand -15.6346 2.22432
rfingers 7.12502
rthumb 10.5526 -27.4908
lclavicle 2.65378e-014 -1.78906e-014
lhumerus 98.1818 36.8082 43.3153
lradius 26.361
lwrist -22.7144
lhand -26.832 29.1057
lfingers 7.12502
lthumb -0.257834 59.0853
rfemur -49.8434 1.97032 11.4591
rtibia 34.2757
rfoot 0.070264 -6.69515
rtoes 13.5793
lfemur 16.3171 4.12738 -13.4491
ltibia 5.40694e-014
lfoot 24.46 17.6888
ltoes -11.7952
1340
root -2.97391 19.9213 5.17799 -387.058 -105.832 385.928
lowerback 13.4315 -1.9283 -5.12588
upperback -6.04248 -3.27967 3.19836
thorax -13.8664 -0.892666 7.33182
lowerneck -24.2504 -5.9256 -15.9519
upperneck -7.4547 -4.78205 14.392
head 2.24971 -1.87334 6.74161
rclavicle 5.3324e-014 -1.98785e-015
rhumerus 45.704 -21.1744 -6.32087
rradius 94.9345
rwrist 6.80782
rhand -16.3797 1.07808
rfingers 7.12502
rthumb 9.83385 -28.6723
lclavicle 5.3324e-014 -1.98785e-015
lhumerus 97.3306 36.6282 42.8757
lradius 25.4089
lwrist -23.7413
lhand -24.8819 27.9487
lfingers 7.12502
lthumb 1.62563 57.9222
rfemur -49.4737 2.01738 11.1229
rtibia 35.0589
rfoot 0.646667 -6.9918
rtoes 13.616
lfemur 16.1732 3.36694 -13.2363
ltibia 2.54444e-014
lfoot 24.4605 18.598
ltoes -9.51016
1341
root -3.01083 19.926 5.13542 -389.204 -105.013 388.231
lowerback 13.2817 -2.16815 -5.03231
upperback -6.08834 -3.57086 3.31846
thorax -13.7774 -1.03689 7.47363
lowerneck -24.1247 -5.75746 -15.7412
upperneck -7.44688 -4.61895 14.146
head 2.19557 -1.80632 6.64269
rclavicle 6.95746e-015 3.93594e-014
rhumerus 44.6764 -22.1104 -6.80291
rradius 97.4679
rwrist 7.05057
rhand -17.5621 0.224544
rfingers 7.12502
rthumb 8.69297 -29.5765
lclavicle 6.95746e-015 3.93594e-014
lhumerus 96.2032 36.4038 42.241
lradius 24.7037
lwrist -24.8553
lhand -23.3991 27.0701
lfingers 7.12502
lthumb 3.05765 57.0279
rfemur -49.0104 2.33413 10.6759
rtibia 35.7877
rfoot 1.217 -6.96033
rtoes 13.2147
lfemur 16.0046 2.55879 -12.9036
ltibia 8.11041e-014
lfoot 23.7715 20.2984
ltoes -3.82337
1342
root -3.04976 19.9157 5.08962 -391.693 -104.257 390.901
lowerback 13.0066 -2.39585 -5.03539
upperback -6.07277 -3.84551 3.55265
thorax -13.5285 -1.16995 7.77963
lowerneck -23.9718 -5.5358 -15.4261
upperneck -7.58012 -4.41546 13.8124
head 2.08367 -1.72909 6.50319
rclavicle -7.05686e-015 8.54774e-015
rhumerus 44.0494 -23.3207 -7.37279
rradius 99.5883
rwrist 7.12367
rhand -19.1284 -0.352675
rfingers 7.12502
rthumb 7.18123 -30.2108
lclavicle -7.05686e-015 8.54774e-015
lhumerus 94.4766 36.3164 40.8952
lradius 24.2503
lwrist -25.3436
lhand -21.4393 26.4627
lfingers 7.12502
lthumb 4.95015 56.3849
rfemur -48.5093 2.82578 10.2916
rtibia 36.4899
rfoot 2.23015 -6.26824
rtoes 8.51252
lfemur 15.8357 1.76731 -12.4989
ltibia 2.8625e-014
lfoot 22.547 22.2813
ltoes 3.01346
1343
root -3.08646 19.9024 5.04428 -394.916 -103.667 394.34
lowerback 12.7026 -2.6007 -4.81733
upperback -6.03054 -4.04699 3.79559
thorax -13.2532 -1.29195 7.94441
lowerneck -24.0545 -5.39515 -15.1901
upperneck -7.50188 -4.27445 13.601
head 2.08461 -1.66712 6.40769
rclavicle -5.31749e-015 -3.18055e-015
rhumerus 43.6705 -24.7522 -7.9771
rradius 101.09
rwrist 6.79836
rhand -20.9394 -0.846492
rfingers 7.12502
rthumb 5.43283 -30.7569
lclavicle -5.31749e-015 -3.18055e-015
lhumerus 93.4198 35.8174 40.3954
lradius 23.5678
lwrist -26.1702
lhand -19.8954 25.3071
lfingers 7.12502
lthumb 6.44075 55.1892
rfemur -48.0576 3.34334 10.2007
rtibia 37.2112
rfoot 3.26739 -5.68475
rtoes 2.77579
lfemur 15.5892 1.04209 -11.9963
ltibia -2.06736e-014
lfoot 23.0926 22.2536
ltoes 1.89002
1344
root -3.11734 19.8954 4.99767 -398.938 -102.974 398.514
lowerback 12.5922 -2.86909 -4.47073
upperback -6.04881 -4.32898 3.9716
thorax -13.1676 -1.45402 7.9976
lowerneck -24.1062 -5.29296 -15.0392
upperneck -7.33167 -4.16466 13.4523
head 2.11899 -1.61438 6.34301
rclavicle 9.13416e-014 -3.97569e-015
rhumerus 43.6495 -26.3424 -8.89186
rradius 102.08
rwrist 6.69574
rhand -22.5406 -1.25252
rfingers 7.12502
rthumb 3.88673 -31.1968
lclavicle 9.13416e-014 -3.97569e-015
lhumerus 92.0618 35.1083 39.5625
lradius 22.9721
lwrist -26.7568
lhand -18.5779 24.2246
lfingers 7.12502
lthumb 7.71262 54.0639
rfemur -47.4724 3.89684 10.0026
rtibia 37.9782
rfoot 3.97888 -5.82515
rtoes 3.12284
lfemur 15.3427 0.128796 -11.5127
ltibia 3.02153e-014
lfoot 24.1418 21.509
ltoes -1.63793
1345
root -3.14812 19.884 4.93934 -403.165 -102.049 402.751
lowerback 12.5383 -3.12056 -4.5452
upperback -6.01621 -4.6662 4.12661
thorax -13.0223 -1.60903 8.27892
lowerneck -24.1213 -5.29847 -15.0609
upperneck -7.228 -4.15622 13.3998
head 2.14911 -1.60655 6.329
rclavicle 7.60848e-014 1.53064e-014
rhumerus 43.9624 -28.1654 -9.94641
rradius 102.556
rwrist 6.86448
rhand -24.2655 -1.3297
rfingers 7.12502
rthumb 2.22091 -31.2979
lclavicle 7.60848e-014 1.53064e-014
lhumerus 90.2042 34.4545 38.1195
lradius 22.6509
lwrist -26.6144
lhand -17.1954 23.5003
lfingers 7.12502
lthumb 9.04681 53.2863
rfemur -46.7329 4.34945 9.55846
rtibia 38.8179
rfoot 4.69084 -5.96204
rtoes 5.47809
lfemur 15.2038 -0.979055 -11.242
ltibia 1.90833e-014
lfoot 24.4128 21.6268
ltoes -1.4727
1346
root -3.18158 19.8629 4.87007 -408.374 -101.294 407.938
lowerback 12.4393 -3.25387 -4.70545
upperback -5.94883 -4.84958 4.35604
thorax -12.8212 -1.68538 8.6528
lowerneck -24.184 -5.46194 -15.2225
upperneck -7.12492 -4.3093 13.3334
head 2.20765 -1.67449 6.31644
rclavicle 4.09745e-014 -1.39149e-015
rhumerus 44.3754 -30.1178 -10.7611
rradius 102.526
rwrist 6.87823
rhand -26.3184 -1.54492
rfingers 7.12502
rthumb 0.238228 -31.5245
lclavicle 4.09745e-014 -1.39149e-015
lhumerus 87.9557 33.6417 36.1629
lradius 22.6979
lwrist -25.6542
lhand -15.6541 23.4041
lfingers 7.12502
lthumb 10.5338 53.1202
rfemur -45.9565 4.9542 9.30028
rtibia 39.7176
rfoot 5.29076 -6.08358
rtoes 7.52651
lfemur 15.1274 -2.07682 -10.8323
ltibia 4.77083e-015
lfoot 24.4922 21.861
ltoes -1.11654
